<?xml version="1.0" encoding="UTF-8"?>
<svg id="Layer_1" xmlns="http://www.w3.org/2000/svg" version="1.1" viewBox="0 0 500 500">
  <!-- Generator: Adobe Illustrator 29.8.1, SVG Export Plug-In . SVG Version: 2.1.1 Build 2)  -->
  <defs>
    <style>
      .st0 {
        fill: #fff;
      }
    </style>
  </defs>
  <path class="st0" d="M422.57,100.54c-32.35-14.13-66.7-24.43-102.56-30.18-4.51,7.42-9.53,17.48-13.04,25.39-38.14-5.27-76.01-5.27-113.62,0-3.51-7.9-8.78-17.96-13.04-25.39-36.11,5.75-70.46,16.05-102.58,30.18C12.78,192.04-4.77,281.38,4,369.51c43.13,29.94,84.76,48.14,125.66,60.12,10.03-12.93,19.06-26.83,26.83-41.44-14.79-5.27-28.84-11.73-42.38-19.4,3.51-2.39,7.02-5.03,10.28-7.66,81.75,35.69,170.29,35.69,251.03,0,3.51,2.64,6.77,5.27,10.28,7.66-13.54,7.67-27.58,14.13-42.38,19.4,7.77,14.61,16.8,28.5,26.83,41.44,40.87-11.98,82.75-30.18,125.66-60.12,10.78-102.03-17.08-190.65-73.25-268.97ZM167.77,315.15c-24.57,0-44.64-21.32-44.64-47.42s19.56-47.42,44.64-47.42,45.14,21.32,44.63,47.42c0,26.11-19.81,47.42-44.63,47.42ZM332.55,315.15c-24.57,0-44.66-21.32-44.66-47.42s19.58-47.42,44.66-47.42,45.14,21.32,44.64,47.42c0,26.11-19.56,47.42-44.64,47.42Z"/>
</svg>